<svg xmlns="http://www.w3.org/2000/svg" width="6" height="10.97" viewBox="0 0 6 10.97">
  <metadata><?xpacket begin="﻿" id="W5M0MpCehiHzreSzNTczkc9d"?>
<x:xmpmeta xmlns:x="adobe:ns:meta/" x:xmptk="Adobe XMP Core 5.6-c138 79.159824, 2016/09/14-01:09:01        ">
   <rdf:RDF xmlns:rdf="http://www.w3.org/1999/02/22-rdf-syntax-ns#">
      <rdf:Description rdf:about=""/>
   </rdf:RDF>
</x:xmpmeta>
                                                                                                    
                                                                                                    
                                                                                                    
                                                                                                    
                                                                                                    
                                                                                                    
                                                                                                    
                                                                                                    
                                                                                                    
                                                                                                    
                                                                                                    
                                                                                                    
                                                                                                    
                                                                                                    
                                                                                                    
                                                                                                    
                                                                                                    
                                                                                                    
                                                                                                    
                                                                                                    
                           
<?xpacket end="w"?></metadata>
<defs>
    <style>
      .cls-1 {
        fill: #aeaeae;
        fill-rule: evenodd;
      }
    </style>
  </defs>
  <path id="arrow_left_" data-name="arrow left " class="cls-1" d="M1054.88,1226.56l-4.28-4.67a0.45,0.45,0,0,0-.65-0.02l-0.68.64a0.474,0.474,0,0,0-.02.67l4.27,4.66a0.443,0.443,0,0,0,.65.03l0.68-.65A0.471,0.471,0,0,0,1054.88,1226.56Zm-4.65-3.94v-0.42a0.412,0.412,0,0,0-.41-0.41h-0.41a0.406,0.406,0,0,0-.41.41v0.42a0.414,0.414,0,0,0,.41.42h0.41A0.421,0.421,0,0,0,1050.23,1222.62Zm1.84,0.83a1.182,1.182,0,0,1,0-2.08l-1.23.21v1.66l0.82,0.42Zm2.73-5.01-4.3,4.65a0.484,0.484,0,0,1-.67.03l-0.68-.65a0.462,0.462,0,0,1-.02-0.66l4.31-4.66a0.462,0.462,0,0,1,.66-0.02l0.68,0.64A0.474,0.474,0,0,1,1054.8,1218.44Z" transform="translate(-1049 -1217)"/>
</svg>
