<svg xmlns="http://www.w3.org/2000/svg" width="16" height="14" viewBox="0 0 16 14">
  <metadata><?xpacket begin="﻿" id="W5M0MpCehiHzreSzNTczkc9d"?>
<x:xmpmeta xmlns:x="adobe:ns:meta/" x:xmptk="Adobe XMP Core 5.6-c138 79.159824, 2016/09/14-01:09:01        ">
   <rdf:RDF xmlns:rdf="http://www.w3.org/1999/02/22-rdf-syntax-ns#">
      <rdf:Description rdf:about=""/>
   </rdf:RDF>
</x:xmpmeta>
                                                                                                    
                                                                                                    
                                                                                                    
                                                                                                    
                                                                                                    
                                                                                                    
                                                                                                    
                                                                                                    
                                                                                                    
                                                                                                    
                                                                                                    
                                                                                                    
                                                                                                    
                                                                                                    
                                                                                                    
                                                                                                    
                                                                                                    
                                                                                                    
                                                                                                    
                                                                                                    
                           
<?xpacket end="w"?></metadata>
<defs>
    <style>
      .cls-1 {
        fill: #fed700;
        fill-rule: evenodd;
      }
    </style>
  </defs>
  <path id="star_1" data-name="star 1" class="cls-1" d="M7.447,0h0.2C8.009,0.059,8.135.789,8.288,1.216c0.431,1.2.962,2.6,1.363,3.725,1.309-.009,2.757.025,4.048,0.079,0.484,0.02,1.3-.169,1.443.353V5.528a9.9,9.9,0,0,1-2.084,1.646c-0.732.532-1.448,1.078-2.124,1.647,0.42,1.263.834,2.637,1.243,3.96,0.112,0.361.438,1.1-.08,1.216a2.047,2.047,0,0,1-1.2-.628c-1.186-.8-2.271-1.5-3.367-2.234C6.47,11.912,5.345,12.6,4.2,13.369A1.9,1.9,0,0,1,2.957,14c-0.443-.141-0.143-0.887-0.04-1.216,0.436-1.391.861-2.691,1.242-4C3.132,7.951,2.031,7.215.913,6.391a1.7,1.7,0,0,1-.922-0.98c0.05-.54.891-0.371,1.4-0.392C2.652,4.967,4.153,4.931,5.442,4.94c0.295-.736.589-1.588,0.922-2.509A6.787,6.787,0,0,1,7.447,0Z"/>
</svg>
