<svg xmlns="http://www.w3.org/2000/svg" width="12.22" height="11" viewBox="0 0 12.22 11">
  <metadata><?xpacket begin="﻿" id="W5M0MpCehiHzreSzNTczkc9d"?>
<x:xmpmeta xmlns:x="adobe:ns:meta/" x:xmptk="Adobe XMP Core 5.6-c138 79.159824, 2016/09/14-01:09:01        ">
   <rdf:RDF xmlns:rdf="http://www.w3.org/1999/02/22-rdf-syntax-ns#">
      <rdf:Description rdf:about=""/>
   </rdf:RDF>
</x:xmpmeta>
                                                                                                    
                                                                                                    
                                                                                                    
                                                                                                    
                                                                                                    
                                                                                                    
                                                                                                    
                                                                                                    
                                                                                                    
                                                                                                    
                                                                                                    
                                                                                                    
                                                                                                    
                                                                                                    
                                                                                                    
                                                                                                    
                                                                                                    
                                                                                                    
                                                                                                    
                                                                                                    
                           
<?xpacket end="w"?></metadata>
<defs>
    <style>
      .cls-1 {
        fill: #fed700;
        fill-rule: evenodd;
      }
    </style>
  </defs>
  <path id="star_3" data-name="star 3" class="cls-1" d="M1310.73,4561h0.17a1.411,1.411,0,0,1,.51.96c0.35,0.94.78,2.03,1.1,2.92,1.06-.01,2.23.02,3.27,0.06,0.39,0.02,1.05-.13,1.16.28v0.12a7.7,7.7,0,0,1-1.68,1.3c-0.59.42-1.17,0.84-1.71,1.29,0.34,0.99.67,2.07,1,3.11,0.09,0.29.35,0.86-.06,0.96a1.7,1.7,0,0,1-.97-0.49c-0.96-.63-1.84-1.18-2.72-1.76-0.85.61-1.76,1.15-2.69,1.76a1.52,1.52,0,0,1-1,.49c-0.36-.11-0.11-0.7-0.03-0.96,0.35-1.09.69-2.11,1-3.14-0.83-.65-1.72-1.23-2.62-1.88a1.337,1.337,0,0,1-.74-0.77c0.04-.42.72-0.29,1.13-0.31,1.02-.04,2.23-0.07,3.27-0.06,0.23-.58.47-1.25,0.74-1.97A5.246,5.246,0,0,1,1310.73,4561Z" transform="translate(-1304.72 -4561)"/>
</svg>
