<svg xmlns="http://www.w3.org/2000/svg" width="13.37" height="12" viewBox="0 0 13.37 12">
  <path id="Wishlist_icon" data-name="Wishlist icon" class="cls-1" d="M1160.08,1395.01a3.473,3.473,0,0,0-3.22,2.35,4.912,4.912,0,0,0,.73,4.35c1.32,1.86,3.42,3.03,4.94,4.7a1.245,1.245,0,0,0,.79.59,1.779,1.779,0,0,0,.91-0.75c0.29-.29.58-0.57,0.83-0.79,1.71-1.53,3.82-2.83,4.64-5.08a4.7,4.7,0,0,0,.1-2.82,3.525,3.525,0,0,0-3.89-2.53,4.244,4.244,0,0,0-2.61,1.6A3.9,3.9,0,0,0,1160.08,1395.01Zm3.22,1.62a4.244,4.244,0,0,1,2.61-1.6,3.525,3.525,0,0,1,3.89,2.53,4.7,4.7,0,0,1-.1,2.82c-0.82,2.25-2.93,3.55-4.64,5.08-0.25.22-.54,0.5-0.83,0.79a1.779,1.779,0,0,1-.91.75,1.245,1.245,0,0,1-.79-0.59c-1.52-1.67-3.62-2.84-4.94-4.7a4.912,4.912,0,0,1-.73-4.35,3.473,3.473,0,0,1,3.22-2.35A3.9,3.9,0,0,1,1163.3,1396.63Zm4.05,5.16a4.518,4.518,0,0,0,1.41-2.53,2.541,2.541,0,0,0-1.19-2.71,2.372,2.372,0,0,0-2.96.51,6.4,6.4,0,0,0-.62.58,0.941,0.941,0,0,1-.69.53,1.047,1.047,0,0,1-.71-0.53,7.236,7.236,0,0,0-.61-0.62,2.542,2.542,0,0,0-1.72-.77,2.37,2.37,0,0,0-2.43,2.37,3.532,3.532,0,0,0,.75,2.34c1.23,1.78,3.4,2.99,4.7,4.58C1164.53,1404.21,1166.02,1403.16,1167.35,1401.79Zm-4.07,3.75c-1.3-1.59-3.47-2.8-4.7-4.58a3.532,3.532,0,0,1-.75-2.34,2.37,2.37,0,0,1,2.43-2.37,2.542,2.542,0,0,1,1.72.77,7.236,7.236,0,0,1,.61.62,1.047,1.047,0,0,0,.71.53,0.941,0.941,0,0,0,.69-0.53,6.4,6.4,0,0,1,.62-0.58,2.372,2.372,0,0,1,2.96-.51,2.541,2.541,0,0,1,1.19,2.71,4.518,4.518,0,0,1-1.41,2.53C1166.02,1403.16,1164.53,1404.21,1163.28,1405.54Z" transform="translate(-1156.63 -1395)"/>
</svg>
