<svg xmlns="http://www.w3.org/2000/svg" width="17" height="17" viewBox="0 0 17 17">
  <metadata><?xpacket begin="﻿" id="W5M0MpCehiHzreSzNTczkc9d"?>
<x:xmpmeta xmlns:x="adobe:ns:meta/" x:xmptk="Adobe XMP Core 5.6-c138 79.159824, 2016/09/14-01:09:01        ">
   <rdf:RDF xmlns:rdf="http://www.w3.org/1999/02/22-rdf-syntax-ns#">
      <rdf:Description rdf:about=""/>
   </rdf:RDF>
</x:xmpmeta>
                                                                                                    
                                                                                                    
                                                                                                    
                                                                                                    
                                                                                                    
                                                                                                    
                                                                                                    
                                                                                                    
                                                                                                    
                                                                                                    
                                                                                                    
                                                                                                    
                                                                                                    
                                                                                                    
                                                                                                    
                                                                                                    
                                                                                                    
                                                                                                    
                                                                                                    
                                                                                                    
                           
<?xpacket end="w"?></metadata>
<defs>
    <style>
      .cls-1 {
        fill: #333e48;
        fill-rule: evenodd;
      }
    </style>
  </defs>
  <path id="Compare_icon" data-name="Compare icon" class="cls-1" d="M1336.39,92.286c-1.05,1.015-2.09,2.267-3.11,3.179V93.236c-2.26.11-4.63-.148-6.62,0a4.179,4.179,0,0,0-3.66,5.119,16.441,16.441,0,0,1-1.54,1.569,6.628,6.628,0,0,1,1.27-6.811,5.926,5.926,0,0,1,3.97-1.858c1.99-.118,4.22.087,6.54,0,0.09-.647.01-1.472,0.04-2.188-0.01-.074.04-0.084,0.04-0.041C1334.35,90.1,1335.42,91.141,1336.39,92.286ZM1325.76,103.8c-0.09.647-.02,1.473-0.04,2.188a0.484,0.484,0,0,1-.36-0.289c-0.86-.9-1.87-1.939-2.75-2.848,0.97-1.125,2.1-2.309,3.11-3.261v2.187c2.24-.031,4.66.186,6.58,0.042a4.15,4.15,0,0,0,3.78-4.376,3.368,3.368,0,0,1-.08-0.7,14.262,14.262,0,0,1,1.5-1.61c0.03-.008.03,0.016,0.03,0.041a6.561,6.561,0,0,1-1.26,6.771,5.929,5.929,0,0,1-3.97,1.857C1330.31,103.923,1328.08,103.717,1325.76,103.8Z" transform="translate(-1321 -89)"/>
</svg>
