<svg xmlns="http://www.w3.org/2000/svg" width="21.187" height="18.37" viewBox="0 0 21.187 18.37">
  <metadata><?xpacket begin="﻿" id="W5M0MpCehiHzreSzNTczkc9d"?>
<x:xmpmeta xmlns:x="adobe:ns:meta/" x:xmptk="Adobe XMP Core 5.6-c138 79.159824, 2016/09/14-01:09:01        ">
   <rdf:RDF xmlns:rdf="http://www.w3.org/1999/02/22-rdf-syntax-ns#">
      <rdf:Description rdf:about=""/>
   </rdf:RDF>
</x:xmpmeta>
                                                                                                    
                                                                                                    
                                                                                                    
                                                                                                    
                                                                                                    
                                                                                                    
                                                                                                    
                                                                                                    
                                                                                                    
                                                                                                    
                                                                                                    
                                                                                                    
                                                                                                    
                                                                                                    
                                                                                                    
                                                                                                    
                                                                                                    
                                                                                                    
                                                                                                    
                                                                                                    
                           
<?xpacket end="w"?></metadata>
<defs>
    <style>
      .cls-1 {
        fill-rule: evenodd;
      }
    </style>
  </defs>
  <path id="google_plus" data-name="google plus" class="cls-1" d="M508.079,5208.57c-0.541-.38-1.578-1.31-1.578-1.85,0-.63.184-0.95,1.152-1.7a3.6,3.6,0,0,0,1.583-2.96c0-1.5-.562-3.3-1.823-3.3h1.9l1.343-.88h-6c-2.69,0-5.22,1.84-5.22,4.18a4.249,4.249,0,0,0,4.569,4.23c0.189,0,.374-0.05.556-0.06a2.045,2.045,0,0,0,.512,2.71c-0.344,0-.678.01-1.041,0.01-3.33,0-6.362,1.77-6.362,3.94,0,2.15,3.279,3.35,6.61,3.35,3.8,0,5.757-1.67,5.757-3.81A4.011,4.011,0,0,0,508.079,5208.57Zm-3.2-2.98c-1.547-.04-3.015-1.71-3.28-3.72s0.768-3.54,2.313-3.5,3.013,1.66,3.281,3.67S506.421,5205.64,504.876,5205.59Zm-0.6,9.7c-2.3,0-3.965-.98-3.965-2.71,0-1.7,2.061-3.11,4.364-3.09a5.413,5.413,0,0,1,1.493.24c1.25,0.86,1.926,1.35,2.178,2.33a2.639,2.639,0,0,1,.074.61C508.415,5214.4,507.508,5215.29,504.271,5215.29Zm11.973-16.57v2.66h2.642v1.76h-2.642v2.62h-1.766v-2.62h-2.644v-1.76h2.644v-2.66h1.766Z" transform="translate(-497.688 -5197.88)"/>
</svg>
