<svg xmlns="http://www.w3.org/2000/svg" width="21.156" height="20.94" viewBox="0 0 21.156 20.94">
  <metadata><?xpacket begin="﻿" id="W5M0MpCehiHzreSzNTczkc9d"?>
<x:xmpmeta xmlns:x="adobe:ns:meta/" x:xmptk="Adobe XMP Core 5.6-c138 79.159824, 2016/09/14-01:09:01        ">
   <rdf:RDF xmlns:rdf="http://www.w3.org/1999/02/22-rdf-syntax-ns#">
      <rdf:Description rdf:about=""/>
   </rdf:RDF>
</x:xmpmeta>
                                                                                                    
                                                                                                    
                                                                                                    
                                                                                                    
                                                                                                    
                                                                                                    
                                                                                                    
                                                                                                    
                                                                                                    
                                                                                                    
                                                                                                    
                                                                                                    
                                                                                                    
                                                                                                    
                                                                                                    
                                                                                                    
                                                                                                    
                                                                                                    
                                                                                                    
                                                                                                    
                           
<?xpacket end="w"?></metadata>
<defs>
    <style>
      .cls-1 {
        fill-rule: evenodd;
      }
    </style>
  </defs>
  <path id="rss" class="cls-1" d="M458.417,5211.88a3.031,3.031,0,1,0,3.087,3.03A3.062,3.062,0,0,0,458.417,5211.88Zm-2.925-7.86c-0.054,0-.109.01-0.163,0.01v3.87c0.054,0,.109-0.01.163-0.01a10.041,10.041,0,0,1,9.993,9.84c0,0.09-.011.16-0.013,0.25h3.941c0-.09.014-0.16,0.014-0.25A13.948,13.948,0,0,0,455.492,5204.02Zm0-6.99h-0.163v3.9h0.163a17.056,17.056,0,0,1,17.109,16.8c0,0.08,0,.16-0.007.25h3.887c0-.09.006-0.17,0.006-0.25A20.94,20.94,0,0,0,455.492,5197.03Z" transform="translate(-455.344 -5197.03)"/>
</svg>
