<svg xmlns="http://www.w3.org/2000/svg" width="18" height="12" viewBox="0 0 18 12">
  <metadata><?xpacket begin="﻿" id="W5M0MpCehiHzreSzNTczkc9d"?>
<x:xmpmeta xmlns:x="adobe:ns:meta/" x:xmptk="Adobe XMP Core 5.6-c138 79.159824, 2016/09/14-01:09:01        ">
   <rdf:RDF xmlns:rdf="http://www.w3.org/1999/02/22-rdf-syntax-ns#">
      <rdf:Description rdf:about=""/>
   </rdf:RDF>
</x:xmpmeta>
                                                                                                    
                                                                                                    
                                                                                                    
                                                                                                    
                                                                                                    
                                                                                                    
                                                                                                    
                                                                                                    
                                                                                                    
                                                                                                    
                                                                                                    
                                                                                                    
                                                                                                    
                                                                                                    
                                                                                                    
                                                                                                    
                                                                                                    
                                                                                                    
                                                                                                    
                                                                                                    
                           
<?xpacket end="w"?></metadata>
<defs>
    <style>
      .cls-1 {
        fill: #333e48;
        fill-rule: evenodd;
      }
    </style>
  </defs>
  <path id="Track_order_icon" data-name="Track order icon" class="cls-1" d="M1129.78,15v2.186h4.89c0.29,0.866.66,1.858,0.98,2.779a6.3,6.3,0,0,1,.3.917,15.219,15.219,0,0,1,0,2.24v2.24h-1.75a2.319,2.319,0,0,1-1.58,1.565,2.248,2.248,0,0,1-2.73-1.565h-4.67a2.5,2.5,0,0,1-.91,1.268,2.263,2.263,0,0,1-3.39-1.268h-1.78v-3.8h1.11v2.7a2.657,2.657,0,0,0,.61.027c0.15-.229.18-0.443,0.31-0.647a2.285,2.285,0,0,1,4.05.647h3.42c0.07-2.68.01-5.478,0.03-8.2H1118V15h11.78Zm0,3.345c0.02,1.97-.04,4.012.03,5.937a2.719,2.719,0,0,0,.33-0.62,2.2,2.2,0,0,1,.92-0.81,2.273,2.273,0,0,1,3.14,1.43h0.64c-0.12-1.152.16-2.189,0-3.238a9.938,9.938,0,0,0-.47-1.4c-0.17-.487-0.35-0.951-0.5-1.376h-4.06C1129.78,18.269,1129.78,18.307,1129.78,18.345ZM1122,25.226a1.137,1.137,0,0,0,2.11-.836,1.108,1.108,0,0,0-1.22-.648A1.078,1.078,0,0,0,1122,25.226Zm8.98,0a1.152,1.152,0,0,0,2.19-.432A1.127,1.127,0,1,0,1130.98,25.226Zm-12.37-8.041h5v1.079h-5.03A9.419,9.419,0,0,1,1118.61,17.185Zm3.89,2.186V20.45h-3.36a7.584,7.584,0,0,1,.03-1.079h3.33Z" transform="translate(-1118 -15)"/>
</svg>
