<svg xmlns="http://www.w3.org/2000/svg" width="21.187" height="17.19" viewBox="0 0 21.187 17.19">
  <metadata><?xpacket begin="﻿" id="W5M0MpCehiHzreSzNTczkc9d"?>
<x:xmpmeta xmlns:x="adobe:ns:meta/" x:xmptk="Adobe XMP Core 5.6-c138 79.159824, 2016/09/14-01:09:01        ">
   <rdf:RDF xmlns:rdf="http://www.w3.org/1999/02/22-rdf-syntax-ns#">
      <rdf:Description rdf:about=""/>
   </rdf:RDF>
</x:xmpmeta>
                                                                                                    
                                                                                                    
                                                                                                    
                                                                                                    
                                                                                                    
                                                                                                    
                                                                                                    
                                                                                                    
                                                                                                    
                                                                                                    
                                                                                                    
                                                                                                    
                                                                                                    
                                                                                                    
                                                                                                    
                                                                                                    
                                                                                                    
                                                                                                    
                                                                                                    
                                                                                                    
                           
<?xpacket end="w"?></metadata>
<defs>
    <style>
      .cls-1 {
        fill-rule: evenodd;
      }
    </style>
  </defs>
  <path id="twitter" class="cls-1" d="M434.143,5201.26a7.94,7.94,0,0,1-2.424.68,4.593,4.593,0,0,0,1.821-2.35,7.126,7.126,0,0,1-2.726.96h0a4.525,4.525,0,0,0-3.158-1.48,4.454,4.454,0,0,0-4.068,5.43h0a12.705,12.705,0,0,1-9.2-4.65,4.513,4.513,0,0,0,1.326,5.88,2.826,2.826,0,0,1-1.908-.49,4.177,4.177,0,0,0,3.371,4.23,3.629,3.629,0,0,1-1.82.14c0.139,1.27,1.939,2.93,3.907,2.93a7.81,7.81,0,0,1-6.3,1.8,13.239,13.239,0,0,0,6.836,1.91,12.323,12.323,0,0,0,12.536-12.63c0-.01,0-0.02,0-0.03s0-.03,0-0.05,0-.04,0-0.07A6.994,6.994,0,0,0,434.143,5201.26Z" transform="translate(-412.969 -5199.06)"/>
</svg>
