<svg xmlns="http://www.w3.org/2000/svg" width="12" height="13" viewBox="0 0 12 13">
  <metadata><?xpacket begin="﻿" id="W5M0MpCehiHzreSzNTczkc9d"?>
<x:xmpmeta xmlns:x="adobe:ns:meta/" x:xmptk="Adobe XMP Core 5.6-c138 79.159824, 2016/09/14-01:09:01        ">
   <rdf:RDF xmlns:rdf="http://www.w3.org/1999/02/22-rdf-syntax-ns#">
      <rdf:Description rdf:about=""/>
   </rdf:RDF>
</x:xmpmeta>
                                                                                                    
                                                                                                    
                                                                                                    
                                                                                                    
                                                                                                    
                                                                                                    
                                                                                                    
                                                                                                    
                                                                                                    
                                                                                                    
                                                                                                    
                                                                                                    
                                                                                                    
                                                                                                    
                                                                                                    
                                                                                                    
                                                                                                    
                                                                                                    
                                                                                                    
                                                                                                    
                           
<?xpacket end="w"?></metadata>
<defs>
    <style>
      .cls-1 {
        fill: #384246;
        fill-rule: evenodd;
      }
    </style>
  </defs>
  <path id="User_icon" data-name="User icon" class="cls-1" d="M1430,27.919V28h-1.21a4.674,4.674,0,0,0-1.31-3.27,4.8,4.8,0,0,0-6.6-.3A4.486,4.486,0,0,0,1419.21,28H1418V27.946a5.873,5.873,0,0,1,3.64-5.352A4.152,4.152,0,0,1,1424.03,15a4.167,4.167,0,0,1,4.08,4.946,4.479,4.479,0,0,1-1.75,2.648A5.86,5.86,0,0,1,1430,27.919Zm-8.96-9.3a2.981,2.981,0,0,0,1.18,2.919,3.131,3.131,0,0,0,3.34.108,2.907,2.907,0,0,0,1.43-2.892,3.128,3.128,0,0,0-.83-1.676A3.033,3.033,0,0,0,1421.04,18.621Z" transform="translate(-1418 -15)"/>
</svg>
