<?xml version="1.0" encoding="UTF-8" standalone="no"?>
<svg
   xmlns:dc="http://purl.org/dc/elements/1.1/"
   xmlns:cc="http://creativecommons.org/ns#"
   xmlns:rdf="http://www.w3.org/1999/02/22-rdf-syntax-ns#"
   xmlns:svg="http://www.w3.org/2000/svg"
   xmlns="http://www.w3.org/2000/svg"
   xmlns:sodipodi="http://sodipodi.sourceforge.net/DTD/sodipodi-0.dtd"
   xmlns:inkscape="http://www.inkscape.org/namespaces/inkscape"
   id="Layer_1"
   style="enable-background:new 0 0 128 128;"
   version="1.1"
   viewBox="0 0 128 128"
   xml:space="preserve"
   inkscape:version="0.91 r13725"
   sodipodi:docname="svg_documents.svg"><metadata
     id="metadata91"><rdf:RDF><cc:Work
         rdf:about=""><dc:format>image/svg+xml</dc:format><dc:type
           rdf:resource="http://purl.org/dc/dcmitype/StillImage" /></cc:Work></rdf:RDF></metadata><defs
     id="defs89" /><sodipodi:namedview
     pagecolor="#ffffff"
     bordercolor="#666666"
     borderopacity="1"
     objecttolerance="10"
     gridtolerance="10"
     guidetolerance="10"
     inkscape:pageopacity="0"
     inkscape:pageshadow="2"
     inkscape:window-width="1920"
     inkscape:window-height="1009"
     id="namedview87"
     showgrid="false"
     inkscape:zoom="5.2149125"
     inkscape:cx="40.075521"
     inkscape:cy="79.065998"
     inkscape:window-x="-4"
     inkscape:window-y="-4"
     inkscape:window-maximized="1"
     inkscape:current-layer="Layer_1" /><style
     type="text/css"
     id="style3">
	.st0{opacity:0.2;fill:#FFFFFF;}
	.st1{fill:#FFFFFF;}
	.st2{fill:none;stroke:#242C88;stroke-width:2;stroke-linecap:round;stroke-linejoin:round;stroke-miterlimit:10;}
	.st3{fill:#5E61A3;}
	.st4{opacity:0.5;fill:#242C88;}
	.st5{fill:#39C89A;}
	.st6{fill:#CAEAFB;}
	.st7{fill:#589FFF;}
	.st8{fill:#FF5751;}
	.st9{fill:#BC8D66;}
	.st10{opacity:0.7;fill:#FFFFFF;}
	.st11{fill:#F1C92A;}
	.st12{opacity:0.4;fill:none;stroke:#FFFFFF;stroke-width:2;stroke-linecap:round;stroke-linejoin:round;stroke-miterlimit:10;}
	.st13{fill:#F3877E;}
	.st14{fill:#83D689;}
	.st15{opacity:0.4;fill:#242C88;}
	.st16{opacity:0.2;fill:#242C88;}
	
		.st17{fill:none;stroke:#FFFFFF;stroke-width:3;stroke-linecap:round;stroke-linejoin:round;stroke-miterlimit:10;stroke-dasharray:0.1,6;}
	.st18{fill:#FFC408;}
	
		.st19{opacity:0.4;fill:none;stroke:#FFFFFF;stroke-width:3;stroke-linecap:round;stroke-linejoin:round;stroke-miterlimit:10;stroke-dasharray:0.1,6;}
	.st20{fill:none;stroke:#CAEAFB;stroke-width:12;stroke-linecap:round;stroke-miterlimit:10;}
	.st21{fill:none;stroke:#CAEAFB;stroke-width:7;stroke-linecap:round;stroke-miterlimit:10;}
	.st22{opacity:0.4;fill:none;stroke:#242C88;stroke-width:2;stroke-linecap:round;stroke-linejoin:round;stroke-miterlimit:10;}
	.st23{opacity:0.5;}
	.st24{fill:#242C88;}
	
		.st25{fill:none;stroke:#242C88;stroke-width:3;stroke-linecap:round;stroke-linejoin:round;stroke-miterlimit:10;stroke-dasharray:0.1,6;}
	.st26{opacity:0.5;fill:#FFFFFF;}
	.st27{fill:none;stroke:#FFFFFF;stroke-width:3;stroke-linecap:round;stroke-linejoin:round;stroke-miterlimit:10;}
	.st28{fill:none;stroke:#FFFFFF;stroke-width:2;stroke-linecap:round;stroke-linejoin:round;stroke-miterlimit:10;}
	.st29{fill:#E5BD9E;}
	.st30{fill:#A06D47;}
	
		.st31{opacity:0.3;fill:none;stroke:#FFFFFF;stroke-width:3;stroke-linecap:round;stroke-linejoin:round;stroke-miterlimit:10;stroke-dasharray:0.1,6;}
	.st32{opacity:0.1;fill:#242C88;}
	.st33{opacity:0.5;fill:#FF5751;}
	.st34{opacity:0.2;fill:none;stroke:#242C88;stroke-width:2;stroke-linecap:round;stroke-linejoin:round;stroke-miterlimit:10;}
	.st35{opacity:0.3;clip-path:url(#SVGID_2_);}
	
		.st36{fill:none;stroke:#FFFFFF;stroke-width:3;stroke-linecap:round;stroke-linejoin:round;stroke-miterlimit:10;stroke-dasharray:0,6;}
	
		.st37{opacity:0.3;fill:none;stroke:#FFFFFF;stroke-width:3;stroke-linecap:round;stroke-linejoin:round;stroke-miterlimit:10;stroke-dasharray:0,6;}
	.st38{clip-path:url(#SVGID_4_);}
	.st39{opacity:0.2;fill:none;stroke:#242C88;stroke-width:9;stroke-linecap:round;stroke-linejoin:round;stroke-miterlimit:10;}
	.st40{opacity:0.3;}
	.st41{opacity:0.4;fill:#FFFFFF;}
	.st42{opacity:0.5;fill:#CAEAFB;}
	.st43{opacity:0.6;fill:#242C88;}
	.st44{opacity:0.5;fill:none;stroke:#242C88;stroke-width:2;stroke-linecap:round;stroke-linejoin:round;stroke-miterlimit:10;}
	.st45{opacity:0.3;fill:#242C88;}
	.st46{opacity:0.2;}
	
		.st47{clip-path:url(#SVGID_6_);fill:none;stroke:#242C88;stroke-width:2;stroke-linecap:round;stroke-linejoin:round;stroke-miterlimit:10;}
	.st48{opacity:0.2;fill:none;stroke:#FFFFFF;stroke-width:8;stroke-linecap:round;stroke-linejoin:round;stroke-miterlimit:10;}
	.st49{clip-path:url(#SVGID_8_);fill:#FFFFFF;}
	
		.st50{clip-path:url(#SVGID_8_);fill:none;stroke:#242C88;stroke-width:2;stroke-linecap:round;stroke-linejoin:round;stroke-miterlimit:10;}
	.st51{opacity:0.2;clip-path:url(#SVGID_8_);fill:#242C88;}
	
		.st52{opacity:0.2;clip-path:url(#SVGID_8_);fill:none;stroke:#242C88;stroke-width:2;stroke-linecap:round;stroke-linejoin:round;stroke-miterlimit:10;}
	.st53{fill:none;stroke:#242C88;stroke-width:1.848;stroke-linecap:round;stroke-linejoin:round;stroke-miterlimit:10;}
	.st54{opacity:0.4;fill:none;stroke:#FFFFFF;stroke-width:7;stroke-linecap:round;stroke-linejoin:round;stroke-miterlimit:10;}
	.st55{opacity:0.2;fill:none;stroke:#242C88;stroke-width:7;stroke-linecap:round;stroke-linejoin:round;stroke-miterlimit:10;}
	.st56{opacity:0.07;fill:#242C88;}
	.st57{fill:none;stroke:#FFFFFF;stroke-width:4;stroke-linecap:round;stroke-linejoin:round;stroke-miterlimit:10;}
	.st58{opacity:0.4;fill:none;stroke:#FFFFFF;stroke-width:8;stroke-linecap:round;stroke-linejoin:round;stroke-miterlimit:10;}
	.st59{opacity:0.2;fill:none;stroke:#242C88;stroke-width:8;stroke-linecap:round;stroke-linejoin:round;stroke-miterlimit:10;}
	.st60{fill:none;stroke:#FF5751;stroke-width:4;stroke-linecap:round;stroke-linejoin:round;stroke-miterlimit:10;}
	.st61{fill:none;stroke:#242C88;stroke-width:4;stroke-linecap:round;stroke-linejoin:round;stroke-miterlimit:10;}
</style><polygon
     class="st8"
     points="10,56 10,66 15,71 15,56 "
     id="polygon5"
     transform="translate(17.833473,-11.888982)"
     style="fill:#ff5751" /><polygon
     class="st43"
     points="10,56 10,66 15,71 15,56 "
     id="polygon7"
     style="opacity:0.6;fill:#b74949;fill-opacity:1"
     transform="translate(17.833473,-11.888982)" /><polygon
     class="st2"
     points="10,66 15,71 15,56 10,56 "
     id="polygon9"
     style="fill:none;stroke:#c3c3c3;stroke-width:1.10000002;stroke-linecap:round;stroke-linejoin:round;stroke-miterlimit:10;stroke-dasharray:none;stroke-opacity:1"
     transform="translate(17.881412,-11.553406)" /><rect
     class="st1"
     height="78"
     width="64"
     x="32.833473"
     y="26.111017"
     id="rect11"
     style="fill:#ffffff" /><rect
     class="st16"
     height="78"
     width="64"
     x="32.833473"
     y="26.111017"
     id="rect13"
     style="opacity:0.2;fill:#ffffff;fill-opacity:1" /><rect
     class="st2"
     height="78"
     width="64"
     x="32.833473"
     y="26.111017"
     id="rect15"
     style="fill:none;stroke:#c3c3c3;stroke-width:1.1;stroke-linecap:round;stroke-linejoin:round;stroke-miterlimit:10;stroke-opacity:1;stroke-dasharray:none" /><line
     class="st28"
     x1="65.833473"
     x2="82.833473"
     y1="37.111019"
     y2="37.111019"
     id="line17"
     style="fill:none;stroke:#c3c3c3;stroke-width:1.1;stroke-linecap:round;stroke-linejoin:round;stroke-miterlimit:10;stroke-opacity:1;stroke-dasharray:none" /><line
     class="st28"
     x1="65.833473"
     x2="82.833473"
     y1="42.111019"
     y2="42.111019"
     id="line19"
     style="fill:none;stroke:#c3c3c3;stroke-width:1.1;stroke-linecap:round;stroke-linejoin:round;stroke-miterlimit:10;stroke-opacity:1;stroke-dasharray:none" /><line
     class="st28"
     x1="65.833473"
     x2="82.833473"
     y1="47.111019"
     y2="47.111019"
     id="line21"
     style="fill:none;stroke:#c3c3c3;stroke-width:1.1;stroke-linecap:round;stroke-linejoin:round;stroke-miterlimit:10;stroke-opacity:1;stroke-dasharray:none" /><line
     class="st28"
     x1="65.833473"
     x2="82.833473"
     y1="52.111019"
     y2="52.111019"
     id="line23"
     style="fill:none;stroke:#c3c3c3;stroke-width:1.1;stroke-linecap:round;stroke-linejoin:round;stroke-miterlimit:10;stroke-opacity:1;stroke-dasharray:none" /><rect
     class="st28"
     height="23"
     width="41"
     x="43.833473"
     y="61.111019"
     id="rect25"
     style="fill:none;stroke:#c3c3c3;stroke-width:1.1;stroke-linecap:round;stroke-linejoin:round;stroke-miterlimit:10;stroke-opacity:1;stroke-dasharray:none" /><rect
     class="st28"
     height="4"
     width="41"
     x="43.833473"
     y="90.111015"
     id="rect27"
     style="fill:none;stroke:#c3c3c3;stroke-width:1.1;stroke-linecap:round;stroke-linejoin:round;stroke-miterlimit:10;stroke-opacity:1;stroke-dasharray:none" /><rect
     class="st8"
     height="18"
     width="32"
     x="27.833473"
     y="36.111019"
     id="rect37"
     style="fill:#ff5751" /><rect
     class="st2"
     height="18"
     width="32"
     x="27.833473"
     y="36.111019"
     id="rect39"
     style="fill:none;stroke:#c3c3c3;stroke-width:1.1;stroke-linecap:round;stroke-linejoin:round;stroke-miterlimit:10;stroke-opacity:1;stroke-dasharray:none" /><g
     id="g41"
     transform="translate(17.833473,-11.888982)"><path
       class="st1"
       d="m 18.77,58.32 -1.59,0 0,2.43 c 0,0.35 -0.08,0.61 -0.25,0.79 -0.17,0.18 -0.37,0.27 -0.62,0.27 -0.26,0 -0.47,-0.09 -0.63,-0.27 -0.16,-0.18 -0.24,-0.44 -0.24,-0.78 l 0,-6.62 c 0,-0.38 0.09,-0.66 0.26,-0.82 0.17,-0.16 0.46,-0.25 0.84,-0.25 l 2.23,0 c 0.66,0 1.17,0.05 1.52,0.15 0.35,0.1 0.66,0.26 0.91,0.49 0.25,0.23 0.45,0.5 0.58,0.83 0.13,0.33 0.2,0.7 0.2,1.11 0,0.88 -0.27,1.54 -0.81,1.99 -0.54,0.45 -1.33,0.68 -2.4,0.68 z m -0.42,-3.94 -1.17,0 0,2.62 1.17,0 c 0.41,0 0.75,-0.04 1.03,-0.13 0.28,-0.09 0.49,-0.23 0.63,-0.42 0.14,-0.19 0.22,-0.45 0.22,-0.77 0,-0.38 -0.11,-0.69 -0.33,-0.93 -0.26,-0.24 -0.77,-0.37 -1.55,-0.37 z"
       id="path43"
       inkscape:connector-curvature="0"
       style="fill:#ffffff" /><path
       class="st1"
       d="m 24.52,53.08 2.27,0 c 0.59,0 1.1,0.05 1.52,0.16 0.42,0.11 0.8,0.31 1.15,0.62 0.89,0.77 1.34,1.93 1.34,3.49 0,0.52 -0.04,0.99 -0.13,1.41 -0.09,0.42 -0.23,0.81 -0.42,1.15 -0.19,0.34 -0.43,0.65 -0.72,0.92 -0.23,0.21 -0.48,0.37 -0.76,0.5 -0.28,0.13 -0.57,0.21 -0.88,0.26 -0.31,0.05 -0.67,0.08 -1.06,0.08 l -2.27,0 c -0.32,0 -0.55,-0.05 -0.71,-0.14 -0.16,-0.09 -0.26,-0.23 -0.31,-0.4 -0.05,-0.17 -0.07,-0.4 -0.07,-0.68 l 0,-6.3 c 0,-0.38 0.08,-0.65 0.25,-0.81 0.17,-0.16 0.42,-0.26 0.8,-0.26 z m 0.67,1.37 0,5.83 1.32,0 c 0.29,0 0.52,-0.01 0.68,-0.02 0.16,-0.01 0.33,-0.05 0.51,-0.12 0.18,-0.07 0.33,-0.15 0.46,-0.26 0.58,-0.49 0.87,-1.34 0.87,-2.54 0,-0.85 -0.13,-1.48 -0.38,-1.9 -0.25,-0.42 -0.57,-0.69 -0.95,-0.81 -0.38,-0.12 -0.83,-0.17 -1.36,-0.17 l -1.15,0 z"
       id="path45"
       inkscape:connector-curvature="0"
       style="fill:#ffffff" /><path
       class="st1"
       d="m 37.46,54.42 -3.43,0 0,2.2 2.87,0 c 0.27,0 0.46,0.06 0.59,0.18 0.13,0.12 0.2,0.28 0.2,0.48 0,0.2 -0.07,0.36 -0.2,0.47 -0.13,0.11 -0.33,0.18 -0.59,0.18 l -2.87,0 0,2.83 c 0,0.36 -0.08,0.63 -0.24,0.8 -0.16,0.17 -0.37,0.26 -0.62,0.26 -0.26,0 -0.47,-0.09 -0.63,-0.26 -0.16,-0.17 -0.24,-0.44 -0.24,-0.8 l 0,-6.61 c 0,-0.25 0.04,-0.45 0.11,-0.61 0.07,-0.16 0.19,-0.27 0.35,-0.35 0.16,-0.08 0.36,-0.11 0.61,-0.11 l 4.1,0 c 0.28,0 0.48,0.06 0.62,0.18 0.14,0.12 0.2,0.28 0.2,0.48 0,0.2 -0.07,0.37 -0.2,0.49 -0.13,0.12 -0.36,0.19 -0.63,0.19 z"
       id="path47"
       inkscape:connector-curvature="0"
       style="fill:#ffffff" /></g></svg>