<svg xmlns="http://www.w3.org/2000/svg" width="5" height="8.969" viewBox="0 0 5 8.969">
  <metadata><?xpacket begin="﻿" id="W5M0MpCehiHzreSzNTczkc9d"?>
<x:xmpmeta xmlns:x="adobe:ns:meta/" x:xmptk="Adobe XMP Core 5.6-c138 79.159824, 2016/09/14-01:09:01        ">
   <rdf:RDF xmlns:rdf="http://www.w3.org/1999/02/22-rdf-syntax-ns#">
      <rdf:Description rdf:about=""/>
   </rdf:RDF>
</x:xmpmeta>
                                                                                                    
                                                                                                    
                                                                                                    
                                                                                                    
                                                                                                    
                                                                                                    
                                                                                                    
                                                                                                    
                                                                                                    
                                                                                                    
                                                                                                    
                                                                                                    
                                                                                                    
                                                                                                    
                                                                                                    
                                                                                                    
                                                                                                    
                                                                                                    
                                                                                                    
                                                                                                    
                           
<?xpacket end="w"?></metadata>
<defs>
    <style>
      .cls-1 {
        fill: #fff;
        fill-rule: evenodd;
      }
    </style>
  </defs>
  <path id="arrow_right" data-name="arrow right" class="cls-1" d="M1086.11,875.827l3.56-3.816a0.39,0.39,0,0,1,.55-0.019l0.56,0.527a0.379,0.379,0,0,1,.02.546l-3.56,3.817a0.392,0.392,0,0,1-.55.019l-0.57-.528A0.387,0.387,0,0,1,1086.11,875.827Zm3.87-3.222v-0.341a0.345,0.345,0,0,1,.34-0.34h0.35a0.345,0.345,0,0,1,.34.34v0.341a0.346,0.346,0,0,1-.34.341h-0.35A0.346,0.346,0,0,1,1089.98,872.605Zm-1.53.681a1.424,1.424,0,0,0,.51-0.852,1.443,1.443,0,0,0-.51-0.851l1.02,0.17v1.363l-0.68.341Zm-2.28-4.1,3.59,3.808a0.392,0.392,0,0,0,.55.019l0.57-.526a0.378,0.378,0,0,0,.02-0.545l-3.59-3.808a0.391,0.391,0,0,0-.55-0.02l-0.58.526A0.387,0.387,0,0,0,1086.17,869.184Z" transform="translate(-1086 -868.031)"/>
</svg>
