<svg xmlns="http://www.w3.org/2000/svg" width="21.187" height="20.97" viewBox="0 0 21.187 20.97">
  <metadata><?xpacket begin="﻿" id="W5M0MpCehiHzreSzNTczkc9d"?>
<x:xmpmeta xmlns:x="adobe:ns:meta/" x:xmptk="Adobe XMP Core 5.6-c138 79.159824, 2016/09/14-01:09:01        ">
   <rdf:RDF xmlns:rdf="http://www.w3.org/1999/02/22-rdf-syntax-ns#">
      <rdf:Description rdf:about=""/>
   </rdf:RDF>
</x:xmpmeta>
                                                                                                    
                                                                                                    
                                                                                                    
                                                                                                    
                                                                                                    
                                                                                                    
                                                                                                    
                                                                                                    
                                                                                                    
                                                                                                    
                                                                                                    
                                                                                                    
                                                                                                    
                                                                                                    
                                                                                                    
                                                                                                    
                                                                                                    
                                                                                                    
                                                                                                    
                                                                                                    
                           
<?xpacket end="w"?></metadata>
<defs>
    <style>
      .cls-1 {
        fill-rule: evenodd;
      }
    </style>
  </defs>
  <path id="dribbble" class="cls-1" d="M593.036,5197.03a10.486,10.486,0,1,0,10.593,10.48A10.535,10.535,0,0,0,593.036,5197.03Zm6.951,5.07a8.67,8.67,0,0,1,1.891,5.17,19,19,0,0,0-6.2-.15c-0.225-.51-0.456-1-0.692-1.48A12.9,12.9,0,0,0,599.987,5202.1Zm-1.219-1.25a11.143,11.143,0,0,1-4.585,3.23,45.172,45.172,0,0,0-3.232-5.08,8.948,8.948,0,0,1,2.085-.25A8.833,8.833,0,0,1,598.768,5200.85Zm-9.536-1.24a42.466,42.466,0,0,1,3.273,5.03,31.5,31.5,0,0,1-8.079.86A8.809,8.809,0,0,1,589.232,5199.61Zm-5.044,7.9c0-.09,0-0.19.007-0.28h0.048a32.828,32.828,0,0,0,9.09-1.02c0.209,0.42.415,0.85,0.616,1.3a13.749,13.749,0,0,0-7.572,5.76A8.661,8.661,0,0,1,584.188,5207.51Zm3.478,6.96a12.147,12.147,0,0,1,6.962-5.36,29.734,29.734,0,0,1,1.778,6.5A8.919,8.919,0,0,1,587.666,5214.47Zm10.368,0.27a31.592,31.592,0,0,0-1.67-5.97,17.722,17.722,0,0,1,5.39.23A8.8,8.8,0,0,1,598.034,5214.74Z" transform="translate(-582.438 -5197.03)"/>
</svg>
