<svg xmlns="http://www.w3.org/2000/svg" width="19" height="19" viewBox="0 0 19 19">
  <path id="Add_to_cart_icon" data-name="Add to cart icon" class="cls-1" d="M0.011,1.648V0.656C0.332-.171,1.9.061,2.722,0.324a3.567,3.567,0,0,1,1.371.752c1.049,1.018,1.167,2.945,1.523,4.7,0.168,0.829.37,1.709,0.548,2.558,0.245,1.164.266,2.679,1.188,3.1a9.55,9.55,0,0,0,3.168.181h1.675a7.457,7.457,0,0,0,1.675,0A4.459,4.459,0,0,0,14.905,10.2c0.652-1.049,1.116-2,1.706-3.161a2.017,2.017,0,0,1,1.1-1.324,1.066,1.066,0,0,1,1.279,1.355A4.6,4.6,0,0,1,18.56,8a28.422,28.422,0,0,1-2.436,4.365,3.652,3.652,0,0,1-1.432,1.354,6.609,6.609,0,0,1-1.645.03c-1.576,0-3.416.105-5,0a4.061,4.061,0,0,1-2.741-1.264A5.637,5.637,0,0,1,4.184,9.655C3.866,8.09,3.544,6.337,3.209,4.689,3.027,3.79,2.985,2.8,2.265,2.431S0.446,2.53.011,1.648ZM12.164,1.2q0.16,1.557.213,3.22c0.637,0.113,1.948-.271,2.041.3a2.482,2.482,0,0,1-.7,1.174A26.91,26.91,0,0,1,11.494,8.3a1.058,1.058,0,0,1-.518.391,2.006,2.006,0,0,1-1.036-.842C9.3,7.167,8.739,6.56,8.174,5.862A1.99,1.99,0,0,1,7.5,4.749c0.12-.612,1.3-0.22,2.01-0.331,0.088-1.067.1-2.2,0.244-3.22A2.163,2.163,0,0,1,12.164,1.2ZM7.352,14.531a1.8,1.8,0,0,1,2.132,1.445A1.841,1.841,0,0,1,6.1,17.21,1.786,1.786,0,0,1,7.352,14.531Zm6.579,0a1.769,1.769,0,0,1,2.132,1.716,1.828,1.828,0,0,1-3.655.03A1.73,1.73,0,0,1,13.931,14.531Z"/>
</svg>
