<svg xmlns="http://www.w3.org/2000/svg" width="19" height="13" viewBox="0 0 19 13">
  <metadata><?xpacket begin="﻿" id="W5M0MpCehiHzreSzNTczkc9d"?>
<x:xmpmeta xmlns:x="adobe:ns:meta/" x:xmptk="Adobe XMP Core 5.6-c138 79.159824, 2016/09/14-01:09:01        ">
   <rdf:RDF xmlns:rdf="http://www.w3.org/1999/02/22-rdf-syntax-ns#">
      <rdf:Description rdf:about=""/>
   </rdf:RDF>
</x:xmpmeta>
                                                                                                    
                                                                                                    
                                                                                                    
                                                                                                    
                                                                                                    
                                                                                                    
                                                                                                    
                                                                                                    
                                                                                                    
                                                                                                    
                                                                                                    
                                                                                                    
                                                                                                    
                                                                                                    
                                                                                                    
                                                                                                    
                                                                                                    
                                                                                                    
                                                                                                    
                                                                                                    
                           
<?xpacket end="w"?></metadata>

  <path d="M1.771,0H16.233a1.863,1.863,0,0,1,1.632,1.1,10,10,0,0,1,.1,2.667V9.332A8.855,8.855,0,0,1,17.832,12a1.836,1.836,0,0,1-1.152.928,8.966,8.966,0,0,1-1.855.058H3.211c-1.685,0-2.743.03-3.1-1.188A11.4,11.4,0,0,1,.044,9.158V3.767A9.409,9.409,0,0,1,.14,1.13,1.74,1.74,0,0,1,1.771,0Zm0.064,1.71v9.651H16.169V1.622H1.867C1.83,1.628,1.833,1.668,1.835,1.709Zm0.9,0.406C4.808,3.306,6.9,4.484,8.97,5.68c2.135-1.129,4.237-2.441,6.3-3.536-0.136.432,0.179,1.077,0,1.536a2.882,2.882,0,0,1-.736.493c-1.79,1.041-3.836,2.112-5.5,3.13Q5.85,5.535,2.731,3.709V2.115Z"/>
</svg>
