<svg xmlns="http://www.w3.org/2000/svg" width="10" height="13" viewBox="0 0 10 13">
  <metadata><?xpacket begin="﻿" id="W5M0MpCehiHzreSzNTczkc9d"?>
<x:xmpmeta xmlns:x="adobe:ns:meta/" x:xmptk="Adobe XMP Core 5.6-c138 79.159824, 2016/09/14-01:09:01        ">
   <rdf:RDF xmlns:rdf="http://www.w3.org/1999/02/22-rdf-syntax-ns#">
      <rdf:Description rdf:about=""/>
   </rdf:RDF>
</x:xmpmeta>
                                                                                                    
                                                                                                    
                                                                                                    
                                                                                                    
                                                                                                    
                                                                                                    
                                                                                                    
                                                                                                    
                                                                                                    
                                                                                                    
                                                                                                    
                                                                                                    
                                                                                                    
                                                                                                    
                                                                                                    
                                                                                                    
                                                                                                    
                                                                                                    
                                                                                                    
                                                                                                    
                           
<?xpacket end="w"?></metadata>
<defs>
    <style>
      .cls-1 {
        fill: #333e48;
        fill-rule: evenodd;
      }
    </style>
  </defs>
  <path id="Marker_icon" data-name="Marker icon" class="cls-1" d="M981.758,14h0.517c3.123,0.258,5.521,2.812,4.478,6.348-0.808,2.737-2.927,4.869-4.721,6.652H982a19.1,19.1,0,0,1-3.046-3.463,8.613,8.613,0,0,1-1.949-4.556,4.63,4.63,0,0,1,1.371-3.493A5.217,5.217,0,0,1,981.758,14ZM978.042,17.7a4.993,4.993,0,0,0,.517,3.432,16.026,16.026,0,0,0,2.8,3.979,3.8,3.8,0,0,0,.67.7,4.372,4.372,0,0,0,.639-0.7,20.432,20.432,0,0,0,1.8-2.248,7.687,7.687,0,0,0,1.645-3.766,3.7,3.7,0,0,0-1.371-3.25,4.131,4.131,0,0,0-2.984-.972A4.065,4.065,0,0,0,978.042,17.7Zm3.685-1.063a2.377,2.377,0,0,1,2.193.912,2.316,2.316,0,0,1-.152,2.612c-1.222,1.41-3.935.714-4.051-1.245a3.017,3.017,0,0,1,.335-1.276A2.276,2.276,0,0,1,981.727,16.641Zm-1.1,2.157a1.387,1.387,0,0,0,2.771-.03,1.322,1.322,0,0,0-1.614-1.276A1.285,1.285,0,0,0,980.631,18.8Z" transform="translate(-977 -14)"/>
</svg>
