<svg xmlns="http://www.w3.org/2000/svg" width="11" height="13" viewBox="0 0 11 13">
  <metadata><?xpacket begin="﻿" id="W5M0MpCehiHzreSzNTczkc9d"?>
<x:xmpmeta xmlns:x="adobe:ns:meta/" x:xmptk="Adobe XMP Core 5.6-c138 79.159824, 2016/09/14-01:09:01        ">
   <rdf:RDF xmlns:rdf="http://www.w3.org/1999/02/22-rdf-syntax-ns#">
      <rdf:Description rdf:about=""/>
   </rdf:RDF>
</x:xmpmeta>
                                                                                                    
                                                                                                    
                                                                                                    
                                                                                                    
                                                                                                    
                                                                                                    
                                                                                                    
                                                                                                    
                                                                                                    
                                                                                                    
                                                                                                    
                                                                                                    
                                                                                                    
                                                                                                    
                                                                                                    
                                                                                                    
                                                                                                    
                                                                                                    
                                                                                                    
                                                                                                    
                           
<?xpacket end="w"?></metadata>
  <path  d="M11,10.738v0.019a1.091,1.091,0,0,1-.446.806,5,5,0,0,1-1.462,1.16,3.958,3.958,0,0,1-2.852.02A9.324,9.324,0,0,1,2.409,9.539,14.024,14.024,0,0,1,.983,7.4,8.01,8.01,0,0,1,.056,4.7,4.3,4.3,0,0,1,1.375.709,1.864,1.864,0,0,1,2.427,0c0.55-.05,1.068.917,1.265,1.259a3.3,3.3,0,0,1,.677,1.868C4.3,4.174,3.158,4.33,2.89,5.154a1.7,1.7,0,0,0,.071.9A5.058,5.058,0,0,0,3.6,7.218,8.991,8.991,0,0,0,5.261,9.146a1.492,1.492,0,0,0,1.23.492,1.82,1.82,0,0,0,.8-0.669,2.215,2.215,0,0,1,.82-0.61,1.905,1.905,0,0,1,1.747.787A3.061,3.061,0,0,1,11,10.738Z"/>
</svg>
