<svg xmlns="http://www.w3.org/2000/svg" width="57" height="54" viewBox="0 0 57 54">
  <metadata><?xpacket begin="﻿" id="W5M0MpCehiHzreSzNTczkc9d"?>
<x:xmpmeta xmlns:x="adobe:ns:meta/" x:xmptk="Adobe XMP Core 5.6-c138 79.159824, 2016/09/14-01:09:01        ">
   <rdf:RDF xmlns:rdf="http://www.w3.org/1999/02/22-rdf-syntax-ns#">
      <rdf:Description rdf:about=""/>
   </rdf:RDF>
</x:xmpmeta>
                                                                                                    
                                                                                                    
                                                                                                    
                                                                                                    
                                                                                                    
                                                                                                    
                                                                                                    
                                                                                                    
                                                                                                    
                                                                                                    
                                                                                                    
                                                                                                    
                                                                                                    
                                                                                                    
                                                                                                    
                                                                                                    
                                                                                                    
                                                                                                    
                                                                                                    
                                                                                                    
                           
<?xpacket end="w"?></metadata>
<defs>
    <style>
      .cls-1 {
        fill: #fed700;
        fill-rule: evenodd;
      }
    </style>
  </defs>
  <path id="Support_icon" data-name="Support icon" class="cls-1" d="M402.275,5017h2.45c10.94,1.54,17.283,7.7,19.148,18.37a6.629,6.629,0,0,1,2.337,2.46c3.65,1.07,5.1,4.36,5.789,8.4v2.46c-0.711,3.95-2.156,7.17-5.677,8.29a7.193,7.193,0,0,1-2.338,2.35c-0.7,5.5-3.629,8.9-9.129,9.3-1.27.09-3.073-.45-4.453,0-1.05.34-1.7,2.61-3.228,2.35h-6.123c-3.565-.24-4.546-5.73-0.78-6.83a26.639,26.639,0,0,1,7.682.11c1.264,0.44,1.667,1.4,2.338,2.02,4.627,0.35,8.428-.29,10.13-2.8,0.508-.75,1.567-2.81,1.225-4.04-0.195-.7-1.623-1.26-2-2.24-0.773-1.98-.223-6.53-0.223-9.85v-5.04c0-3.3-.107-5.83,2.227-6.72a18.27,18.27,0,0,0-19.482-16.24c-9.516.6-15.3,7.29-16.81,16.13,3.05,1.34,2.226,6.58,2.226,11.98,0,5.26,1.218,12.56-3.9,11.98-1.5-.16-2.166-1.29-2.9-2.46-3.639-1.04-5.065-4.31-5.788-8.29v-2.46c0.72-4.05,2.127-7.42,5.9-8.4,0.3-1.26,1.413-1.71,2.226-2.46C384.979,5024.69,391.339,5018.54,402.275,5017Zm-19.036,20.94c-0.4,4.35-.223,9.9-0.223,14.56,0,1.59-.321,3.39.445,4.59a4.981,4.981,0,0,0,1.336,0c0.763-1.18.445-2.87,0.445-4.48,0-4.87.181-10.34-.222-14.67A1.772,1.772,0,0,0,383.239,5037.94Zm38.741,0c-0.4,4.35-.223,9.9-0.223,14.56,0,1.59-.321,3.39.446,4.59a4.981,4.981,0,0,0,1.336,0c0.763-1.18.445-2.87,0.445-4.48,0-4.87.18-10.34-.223-14.67A1.772,1.772,0,0,0,421.98,5037.94Zm-41.3,16.69c-0.074-4.78.149-9.86-.111-14.45C376.243,5042.05,376.152,5052.91,380.678,5054.63Zm45.755,0c4.347-1.87,4.384-12.72-.111-14.45C426.4,5044.96,426.173,5050.04,426.433,5054.63Zm-26.162,13.66a17.576,17.576,0,0,0,7.571,0,1.736,1.736,0,0,0,0-1.68C406.006,5066.68,398.575,5065.05,400.271,5068.29Z" transform="translate(-375 -5017)"/>
</svg>
