<svg xmlns="http://www.w3.org/2000/svg" width="11.94" height="11.97" viewBox="0 0 11.94 11.97">
  <metadata><?xpacket begin="﻿" id="W5M0MpCehiHzreSzNTczkc9d"?>
<x:xmpmeta xmlns:x="adobe:ns:meta/" x:xmptk="Adobe XMP Core 5.6-c138 79.159824, 2016/09/14-01:09:01        ">
   <rdf:RDF xmlns:rdf="http://www.w3.org/1999/02/22-rdf-syntax-ns#">
      <rdf:Description rdf:about=""/>
   </rdf:RDF>
</x:xmpmeta>
                                                                                                    
                                                                                                    
                                                                                                    
                                                                                                    
                                                                                                    
                                                                                                    
                                                                                                    
                                                                                                    
                                                                                                    
                                                                                                    
                                                                                                    
                                                                                                    
                                                                                                    
                                                                                                    
                                                                                                    
                                                                                                    
                                                                                                    
                                                                                                    
                                                                                                    
                                                                                                    
                           
<?xpacket end="w"?></metadata>
<defs>
    <style>
      .cls-1 {
        fill: #848484;
        fill-rule: evenodd;
      }
    </style>
  </defs>
  <path id="Compare_icon" data-name="Compare icon" class="cls-1" d="M1066.81,1397.32c-0.74.72-1.47,1.6-2.19,2.24v-1.57c-1.58.08-3.25-.1-4.64,0a2.937,2.937,0,0,0-2.57,3.61,12.6,12.6,0,0,1-1.08,1.11,4.7,4.7,0,0,1,.88-4.81,4.189,4.189,0,0,1,2.8-1.31c1.39-.08,2.96.06,4.59,0,0.06-.46.01-1.04,0.02-1.54,0-.06.03-0.06,0.03-0.03C1065.38,1395.78,1066.13,1396.51,1066.81,1397.32Zm-7.47,8.13c-0.06.46-.01,1.04-0.03,1.54-0.11.04-.18-0.13-0.25-0.2-0.6-.64-1.31-1.37-1.93-2.01,0.68-.79,1.48-1.63,2.18-2.3v1.54c1.57-.02,3.27.13,4.62,0.03a2.923,2.923,0,0,0,2.66-3.09,2.734,2.734,0,0,1-.06-0.49,10.529,10.529,0,0,1,1.05-1.14c0.03,0,.03.01,0.03,0.03a4.671,4.671,0,0,1-.88,4.78,4.189,4.189,0,0,1-2.8,1.31C1062.54,1405.53,1060.97,1405.39,1059.34,1405.45Z" transform="translate(-1056 -1395.03)"/>
</svg>
