<svg xmlns="http://www.w3.org/2000/svg" width="16" height="14" viewBox="0 0 16 14">
  <metadata><?xpacket begin="﻿" id="W5M0MpCehiHzreSzNTczkc9d"?>
<x:xmpmeta xmlns:x="adobe:ns:meta/" x:xmptk="Adobe XMP Core 5.6-c138 79.159824, 2016/09/14-01:09:01        ">
   <rdf:RDF xmlns:rdf="http://www.w3.org/1999/02/22-rdf-syntax-ns#">
      <rdf:Description rdf:about=""/>
   </rdf:RDF>
</x:xmpmeta>
                                                                                                    
                                                                                                    
                                                                                                    
                                                                                                    
                                                                                                    
                                                                                                    
                                                                                                    
                                                                                                    
                                                                                                    
                                                                                                    
                                                                                                    
                                                                                                    
                                                                                                    
                                                                                                    
                                                                                                    
                                                                                                    
                                                                                                    
                                                                                                    
                                                                                                    
                                                                                                    
                           
<?xpacket end="w"?></metadata>
<defs>
    <style>
      .cls-1 {
        fill: #cbcbcb;
        fill-rule: evenodd;
      }
    </style>
  </defs>
  <path id="star_empty" data-name="star empty" class="cls-1" d="M8.3,0H8.5C8.859,0.059,8.985.789,9.138,1.216c0.431,1.2.962,2.6,1.363,3.725,1.308-.009,2.757.025,4.048,0.079,0.484,0.02,1.3-.169,1.443.353V5.528a9.9,9.9,0,0,1-2.084,1.647c-0.732.532-1.447,1.078-2.124,1.647,0.42,1.263.834,2.637,1.243,3.96,0.112,0.361.438,1.1-.08,1.216a2.047,2.047,0,0,1-1.2-.628c-1.186-.8-2.271-1.5-3.367-2.235-1.057.778-2.182,1.469-3.327,2.235A1.9,1.9,0,0,1,3.807,14c-0.443-.141-0.143-0.887-0.04-1.216,0.436-1.391.861-2.691,1.242-4C3.981,7.951,2.88,7.215,1.762,6.391A1.7,1.7,0,0,1,.84,5.411c0.05-.54.891-0.371,1.4-0.392C3.5,4.967,5,4.931,6.292,4.94c0.295-.736.589-1.588,0.922-2.509A6.782,6.782,0,0,1,8.3,0ZM8.33,1.982H8.477a1.333,1.333,0,0,1,.473.9c0.318,0.886.709,1.913,1,2.746,0.964-.007,2.032.018,2.984,0.058C13.3,5.7,13.9,5.557,14,5.942V6.057a7.282,7.282,0,0,1-1.537,1.214C11.927,7.663,11.4,8.066,10.9,8.485c0.31,0.931.614,1.944,0.916,2.919,0.082,0.267.323,0.808-.059,0.9a1.512,1.512,0,0,1-.886-0.462C10,11.248,9.2,10.734,8.389,10.19c-0.779.573-1.608,1.083-2.453,1.648a1.4,1.4,0,0,1-.916.462c-0.326-.1-0.106-0.653-0.03-0.9,0.321-1.025.635-1.984,0.916-2.948C5.149,7.843,4.338,7.3,3.513,6.693a1.254,1.254,0,0,1-.68-0.722c0.037-.4.657-0.274,1.034-0.289C4.8,5.643,5.9,5.617,6.852,5.624c0.217-.542.434-1.171,0.68-1.85A5,5,0,0,1,8.33,1.982Z"/>
</svg>
